<svg width="4586" height="503" viewBox="0 0 4586 503" fill="none" xmlns="http://www.w3.org/2000/svg">
<g clip-path="url(#clip0_7_2)">
<circle cx="251.5" cy="251.5" r="251.5" fill="#282C34"/>
<path d="M174.764 306.712H132.322V263.487H182.624L188.519 228.121H147.256V184.896H196.378L209.74 108.662H255.719L207.382 382.946H161.403L174.764 306.712ZM285.979 108.662H331.958L318.596 184.896H361.038V228.121H310.736L304.842 263.487H346.105V306.712H296.982L283.621 382.946H237.642L285.979 108.662Z" fill="#E06C75"/>
<path d="M872.5 210H871L845.5 261L777.5 384.5L711 261.5L684.5 206.5H683V439H611.5V90H692L777.5 253.5H778.5L863 90H944V439H872.5V210ZM1211.17 439C1197.83 439 1186.67 434.833 1177.67 426.5C1169 418.167 1163.5 407 1161.17 393H1158.17C1154.17 410 1145.33 423 1131.67 432C1118 440.667 1101.17 445 1081.17 445C1054.83 445 1034.67 438 1020.67 424C1006.67 410 999.668 391.5 999.668 368.5C999.668 340.833 1009.67 320.333 1029.67 307C1050 293.333 1077.5 286.5 1112.17 286.5H1153.67V270C1153.67 257.333 1150.33 247.333 1143.67 240C1137 232.333 1125.83 228.5 1110.17 228.5C1095.5 228.5 1083.83 231.667 1075.17 238C1066.5 244.333 1059.33 251.5 1053.67 259.5L1009.67 220.5C1020.33 204.833 1033.67 192.667 1049.67 184C1066 175 1088 170.5 1115.67 170.5C1153 170.5 1181 178.667 1199.67 195C1218.33 211.333 1227.67 235.167 1227.67 266.5V381.5H1252.17V439H1211.17ZM1108.67 393.5C1121 393.5 1131.5 390.833 1140.17 385.5C1149.17 380.167 1153.67 371.5 1153.67 359.5V328.5H1117.67C1088.67 328.5 1074.17 338.333 1074.17 358V365.5C1074.17 375.167 1077.17 382.333 1083.17 387C1089.17 391.333 1097.67 393.5 1108.67 393.5ZM1301.84 439V176.5H1375.84V233.5H1378.34C1379.67 226.167 1382 219.167 1385.34 212.5C1388.67 205.5 1393 199.333 1398.34 194C1404 188.667 1410.67 184.5 1418.34 181.5C1426 178.167 1435 176.5 1445.34 176.5H1458.34V245.5H1439.84C1418.17 245.5 1402 248.333 1391.34 254C1381 259.667 1375.84 270.167 1375.84 285.5V439H1301.84ZM1503.98 69H1577.98V287.5H1580.98L1613.48 239L1665.98 176.5H1747.98L1660.48 277L1757.98 439H1669.98L1610.98 328L1577.98 365V439H1503.98V69ZM1943.79 395H1941.29C1939.29 402 1936.13 408.667 1931.79 415C1927.46 421 1922.13 426.333 1915.79 431C1909.79 435.333 1902.79 438.667 1894.79 441C1887.13 443.667 1879.13 445 1870.79 445C1837.46 445 1812.29 433.333 1795.29 410C1778.29 386.333 1769.79 352.167 1769.79 307.5C1769.79 262.833 1778.29 228.833 1795.29 205.5C1812.29 182.167 1837.46 170.5 1870.79 170.5C1887.79 170.5 1902.79 175.167 1915.79 184.5C1929.13 193.833 1937.63 205.833 1941.29 220.5H1943.79V69H2017.79V439H1943.79V395ZM1895.29 385C1909.29 385 1920.79 381.667 1929.79 375C1939.13 368 1943.79 358.5 1943.79 346.5V269C1943.79 257 1939.13 247.667 1929.79 241C1920.79 234 1909.29 230.5 1895.29 230.5C1881.29 230.5 1869.63 235.5 1860.29 245.5C1851.29 255.167 1846.79 268.333 1846.79 285V330.5C1846.79 347.167 1851.29 360.5 1860.29 370.5C1869.63 380.167 1881.29 385 1895.29 385ZM2193.49 445C2174.16 445 2156.83 441.833 2141.49 435.5C2126.49 429.167 2113.66 420 2102.99 408C2092.66 396 2084.66 381.5 2078.99 364.5C2073.33 347.5 2070.49 328.5 2070.49 307.5C2070.49 286.5 2073.33 267.5 2078.99 250.5C2084.66 233.5 2092.66 219.167 2102.99 207.5C2113.66 195.5 2126.49 186.333 2141.49 180C2156.83 173.667 2174.16 170.5 2193.49 170.5C2212.83 170.5 2229.99 173.667 2244.99 180C2260.33 186.333 2273.16 195.5 2283.49 207.5C2294.16 219.167 2302.33 233.5 2307.99 250.5C2313.66 267.5 2316.49 286.5 2316.49 307.5C2316.49 328.5 2313.66 347.5 2307.99 364.5C2302.33 381.5 2294.16 396 2283.49 408C2273.16 420 2260.33 429.167 2244.99 435.5C2229.99 441.833 2212.83 445 2193.49 445ZM2193.49 386.5C2208.16 386.5 2219.49 382 2227.49 373C2235.49 364 2239.49 351.167 2239.49 334.5V281C2239.49 264.333 2235.49 251.5 2227.49 242.5C2219.49 233.5 2208.16 229 2193.49 229C2178.83 229 2167.49 233.5 2159.49 242.5C2151.49 251.5 2147.49 264.333 2147.49 281V334.5C2147.49 351.167 2151.49 364 2159.49 373C2167.49 382 2178.83 386.5 2193.49 386.5ZM2339.34 176.5H2410.84L2436.34 282.5L2454.34 362.5H2456.34L2477.34 282.5L2507.34 176.5H2574.84L2605.34 282.5L2626.84 362.5H2628.84L2646.84 282.5L2672.34 176.5H2740.84L2668.34 439H2590.84L2558.84 328L2540.34 260H2538.84L2520.84 328L2488.84 439H2412.84L2339.34 176.5ZM2784.75 439V176.5H2858.75V221H2861.75C2866.41 207.333 2874.58 195.5 2886.25 185.5C2897.91 175.5 2914.08 170.5 2934.75 170.5C2961.75 170.5 2982.08 179.5 2995.75 197.5C3009.75 215.5 3016.75 241.167 3016.75 274.5V439H2942.75V280.5C2942.75 263.5 2940.08 251 2934.75 243C2929.41 234.667 2919.91 230.5 2906.25 230.5C2900.25 230.5 2894.41 231.333 2888.75 233C2883.08 234.333 2877.91 236.667 2873.25 240C2868.91 243.333 2865.41 247.5 2862.75 252.5C2860.08 257.167 2858.75 262.667 2858.75 269V439H2784.75ZM3204.76 439V90H3442.26V157.5H3280.76V229H3419.26V296H3280.76V371.5H3442.26V439H3204.76ZM3660.59 395H3658.09C3656.09 402 3652.92 408.667 3648.59 415C3644.26 421 3638.92 426.333 3632.59 431C3626.59 435.333 3619.59 438.667 3611.59 441C3603.92 443.667 3595.92 445 3587.59 445C3554.26 445 3529.09 433.333 3512.09 410C3495.09 386.333 3486.59 352.167 3486.59 307.5C3486.59 262.833 3495.09 228.833 3512.09 205.5C3529.09 182.167 3554.26 170.5 3587.59 170.5C3604.59 170.5 3619.59 175.167 3632.59 184.5C3645.92 193.833 3654.42 205.833 3658.09 220.5H3660.59V69H3734.59V439H3660.59V395ZM3612.09 385C3626.09 385 3637.59 381.667 3646.59 375C3655.92 368 3660.59 358.5 3660.59 346.5V269C3660.59 257 3655.92 247.667 3646.59 241C3637.59 234 3626.09 230.5 3612.09 230.5C3598.09 230.5 3586.42 235.5 3577.09 245.5C3568.09 255.167 3563.59 268.333 3563.59 285V330.5C3563.59 347.167 3568.09 360.5 3577.09 370.5C3586.42 380.167 3598.09 385 3612.09 385ZM3840.79 148.5C3825.79 148.5 3814.79 145.167 3807.79 138.5C3801.12 131.5 3797.79 122.667 3797.79 112V101C3797.79 90.3333 3801.12 81.6667 3807.79 75C3814.79 68 3825.79 64.5 3840.79 64.5C3855.79 64.5 3866.62 68 3873.29 75C3880.29 81.6667 3883.79 90.3333 3883.79 101V112C3883.79 122.667 3880.29 131.5 3873.29 138.5C3866.62 145.167 3855.79 148.5 3840.79 148.5ZM3803.79 176.5H3877.79V439H3803.79V176.5ZM4038.86 439C4013.19 439 3993.69 432.5 3980.36 419.5C3967.36 406.5 3960.86 387.5 3960.86 362.5V234H3923.86V176.5H3942.36C3952.36 176.5 3959.19 174.167 3962.86 169.5C3966.52 164.5 3968.36 157.5 3968.36 148.5V105.5H4034.86V176.5H4086.86V234H4034.86V381.5H4082.86V439H4038.86ZM4242.81 445C4223.48 445 4206.14 441.833 4190.81 435.5C4175.81 429.167 4162.98 420 4152.31 408C4141.98 396 4133.98 381.5 4128.31 364.5C4122.64 347.5 4119.81 328.5 4119.81 307.5C4119.81 286.5 4122.64 267.5 4128.31 250.5C4133.98 233.5 4141.98 219.167 4152.31 207.5C4162.98 195.5 4175.81 186.333 4190.81 180C4206.14 173.667 4223.48 170.5 4242.81 170.5C4262.14 170.5 4279.31 173.667 4294.31 180C4309.64 186.333 4322.48 195.5 4332.81 207.5C4343.48 219.167 4351.64 233.5 4357.31 250.5C4362.98 267.5 4365.81 286.5 4365.81 307.5C4365.81 328.5 4362.98 347.5 4357.31 364.5C4351.64 381.5 4343.48 396 4332.81 408C4322.48 420 4309.64 429.167 4294.31 435.5C4279.31 441.833 4262.14 445 4242.81 445ZM4242.81 386.5C4257.48 386.5 4268.81 382 4276.81 373C4284.81 364 4288.81 351.167 4288.81 334.5V281C4288.81 264.333 4284.81 251.5 4276.81 242.5C4268.81 233.5 4257.48 229 4242.81 229C4228.14 229 4216.81 233.5 4208.81 242.5C4200.81 251.5 4196.81 264.333 4196.81 281V334.5C4196.81 351.167 4200.81 364 4208.81 373C4216.81 382 4228.14 386.5 4242.81 386.5ZM4418.54 439V176.5H4492.54V233.5H4495.04C4496.37 226.167 4498.7 219.167 4502.04 212.5C4505.37 205.5 4509.7 199.333 4515.04 194C4520.7 188.667 4527.37 184.5 4535.04 181.5C4542.7 178.167 4551.7 176.5 4562.04 176.5H4575.04V245.5H4556.54C4534.87 245.5 4518.7 248.333 4508.04 254C4497.7 259.667 4492.54 270.167 4492.54 285.5V439H4418.54Z" fill="#282C34"/>
</g>
<defs>
<clipPath id="clip0_7_2">
<rect width="4586" height="503" fill="white"/>
</clipPath>
</defs>
</svg>
