<svg width="658" height="634" viewBox="0 0 658 634" fill="none" xmlns="http://www.w3.org/2000/svg">
<g clip-path="url(#clip0_14_81)">
<rect x="42" y="38" width="581" height="546" fill="#282C34"/>
<path d="M435.75 289.158V168.755L543 231.486L435.75 289.158Z" fill="#F03639" stroke="black" stroke-width="3"/>
<path d="M543 112.094L543 232.498L435.75 169.766L543 112.094Z" fill="#B7083F" stroke="black" stroke-width="3"/>
<path d="M543 231.486L543 351.889L435.75 289.158L543 231.486Z" fill="#BF045F" stroke="black" stroke-width="3"/>
<path d="M115 224.403V104L222.25 166.731L115 224.403Z" fill="#F03639"/>
<path d="M221.25 166.731L221.25 287.134L114 224.403L221.25 166.731Z" fill="#DC064E"/>
<path d="M116.024 343.795V223.392L223.274 286.123L116.024 343.795Z" fill="#BF045F"/>
<path d="M435.75 410.573V290.17L543 352.901L435.75 410.573Z" fill="#EE1F7A"/>
<path d="M543 353V473L436 410.479L543 353Z" fill="#652D90"/>
<path d="M435.75 529.965V409.561L543 472.292L435.75 529.965Z" fill="#DD0449"/>
<path d="M221.25 288.146L221.25 408.55L114 345.818L221.25 288.146Z" fill="#A81B8C"/>
<path d="M114 463.186V342.783L221.25 405.514L114 463.186Z" fill="#9F005D"/>
<path d="M221.25 405.514V525.917L114 463.186L221.25 405.514Z" fill="#7A0788"/>
<path d="M221.25 287.134L221.25 166.731L328.5 229.462L221.25 287.134Z" fill="#BF045F"/>
<path d="M328.5 227.439L328.5 347.842L221.25 285.111L328.5 227.439Z" fill="#8E1677"/>
<path d="M328.5 347.842L328.5 227.439L435.75 290.17L328.5 347.842Z" fill="#770B83"/>
<path d="M435.75 170.778V291.182L328.5 228.45L435.75 170.778Z" fill="#99187F"/>
<path d="M115 242.639V223.415L221.238 284.123L115 242.639Z" fill="#8D0422"/>
<path d="M543 333.677V352.901L437.774 292.193L543 333.677Z" fill="#8D0422"/>
<path d="M115 104L115.757 102.705L113.5 101.385V104H115ZM115 224.403H113.5V226.913L115.71 225.724L115 224.403ZM222.25 166.731L222.96 168.052L225.315 166.786L223.007 165.436L222.25 166.731ZM221.25 287.134L220.493 288.429L221.219 288.854L221.96 288.456L221.25 287.134ZM221.25 166.731L222.007 165.436L221.281 165.011L220.54 165.41L221.25 166.731ZM114 224.403L113.29 223.082L110.935 224.348L113.243 225.698L114 224.403ZM116.024 223.392L116.781 222.097L114.524 220.776V223.392H116.024ZM116.024 343.795H114.524V346.305L116.734 345.116L116.024 343.795ZM223.274 286.123L223.984 287.444L226.339 286.178L224.031 284.828L223.274 286.123ZM435.75 410.573H434.25V413.083L436.46 411.894L435.75 410.573ZM543 352.901L543.71 354.222L544.5 353.797V352.901H543ZM543 473L542.243 474.295L544.5 475.614V473H543ZM543 353H544.5V350.491L542.29 351.679L543 353ZM436 410.479L435.29 409.158L432.933 410.424L435.243 411.774L436 410.479ZM435.75 409.561L436.507 408.267L434.25 406.946V409.561H435.75ZM435.75 529.965H434.25V532.474L436.46 531.286L435.75 529.965ZM543 472.292L543.71 473.614L546.065 472.347L543.757 470.998L543 472.292ZM221.25 408.55L220.493 409.844L222.75 411.165L222.75 408.55L221.25 408.55ZM221.25 288.146L222.75 288.146L222.75 285.637L220.54 286.825L221.25 288.146ZM114 345.818L113.29 344.497L110.935 345.763L113.243 347.113L114 345.818ZM114 342.783L114.757 341.488L112.5 340.168V342.783H114ZM114 463.186H112.5V464.047L113.243 464.481L114 463.186ZM221.25 405.514H222.75V404.654L222.007 404.219L221.25 405.514ZM221.25 525.917L220.493 527.212L222.75 528.533V525.917H221.25ZM328.5 229.462L329.21 230.783L331.565 229.517L329.257 228.167L328.5 229.462ZM328.5 347.842L327.743 349.137L328.469 349.562L329.21 349.163L328.5 347.842ZM328.5 227.439L329.257 226.144L328.531 225.719L327.79 226.118L328.5 227.439ZM221.25 285.111L220.54 283.79L218.185 285.056L220.493 286.406L221.25 285.111ZM435.75 291.182L434.993 292.476L437.25 293.797V291.182H435.75ZM435.75 170.778H437.25V168.269L435.04 169.457L435.75 170.778ZM328.5 228.45L327.79 227.129L325.435 228.395L327.743 229.745L328.5 228.45ZM115 223.415L115.744 222.113L113.5 220.83V223.415H115ZM115 242.639H113.5V243.664L114.454 244.036L115 242.639ZM221.238 284.123L220.693 285.52L221.982 282.82L221.238 284.123ZM543 333.677H544.5V332.656L543.55 332.281L543 333.677ZM437.774 292.193L438.324 290.798L437.024 293.493L437.774 292.193ZM113.5 104V224.403H116.5V104H113.5ZM115.71 225.724L222.96 168.052L221.54 165.41L114.29 223.082L115.71 225.724ZM223.007 165.436L115.757 102.705L114.243 105.295L221.493 168.026L223.007 165.436ZM222.75 287.134L222.75 166.731L219.75 166.731L219.75 287.134L222.75 287.134ZM220.54 165.41L113.29 223.082L114.71 225.724L221.96 168.052L220.54 165.41ZM113.243 225.698L220.493 288.429L222.007 285.84L114.757 223.109L113.243 225.698ZM114.524 223.392V343.795H117.524V223.392H114.524ZM116.734 345.116L223.984 287.444L222.563 284.802L115.313 342.474L116.734 345.116ZM224.031 284.828L116.781 222.097L115.266 224.686L222.516 287.417L224.031 284.828ZM434.25 290.17V410.573H437.25V290.17H434.25ZM436.46 411.894L543.71 354.222L542.29 351.58L435.04 409.252L436.46 411.894ZM543.757 351.606L436.507 288.875L434.993 291.465L542.243 354.196L543.757 351.606ZM544.5 473V353H541.5V473H544.5ZM542.29 351.679L435.29 409.158L436.71 411.8L543.71 354.321L542.29 351.679ZM435.243 411.774L542.243 474.295L543.757 471.705L436.757 409.184L435.243 411.774ZM434.25 409.561V529.965H437.25V409.561H434.25ZM436.46 531.286L543.71 473.614L542.29 470.971L435.04 528.644L436.46 531.286ZM543.757 470.998L436.507 408.267L434.993 410.856L542.243 473.587L543.757 470.998ZM222.75 408.55L222.75 288.146L219.75 288.146L219.75 408.55L222.75 408.55ZM220.54 286.825L113.29 344.497L114.71 347.139L221.96 289.467L220.54 286.825ZM113.243 347.113L220.493 409.844L222.007 407.255L114.757 344.524L113.243 347.113ZM112.5 342.783V463.186H115.5V342.783H112.5ZM114.71 464.507L221.96 406.835L220.54 404.193L113.29 461.865L114.71 464.507ZM222.007 404.219L114.757 341.488L113.243 344.078L220.493 406.809L222.007 404.219ZM222.75 525.917V405.514H219.75V525.917H222.75ZM113.243 464.481L220.493 527.212L222.007 524.623L114.757 461.892L113.243 464.481ZM221.96 288.456L329.21 230.783L327.79 228.141L220.54 285.813L221.96 288.456ZM329.257 228.167L222.007 165.436L220.493 168.026L327.743 230.757L329.257 228.167ZM330 347.842L330 227.439L327 227.439L327 347.842L330 347.842ZM327.79 226.118L220.54 283.79L221.96 286.432L329.21 228.76L327.79 226.118ZM220.493 286.406L327.743 349.137L329.257 346.547L222.007 283.816L220.493 286.406ZM329.21 349.163L436.46 291.491L435.04 288.849L327.79 346.521L329.21 349.163ZM436.507 288.875L329.257 226.144L327.743 228.733L434.993 291.465L436.507 288.875ZM437.25 291.182V170.778H434.25V291.182H437.25ZM435.04 169.457L327.79 227.129L329.21 229.772L436.46 172.099L435.04 169.457ZM327.743 229.745L434.993 292.476L436.507 289.887L329.257 227.156L327.743 229.745ZM113.5 223.415V242.639H116.5V223.415H113.5ZM114.454 244.036L220.693 285.52L221.784 282.725L115.546 241.242L114.454 244.036ZM221.982 282.82L115.744 222.113L114.256 224.717L220.494 285.425L221.982 282.82ZM544.5 352.901V333.677H541.5V352.901H544.5ZM543.55 332.281L438.324 290.798L437.223 293.589L542.45 335.072L543.55 332.281ZM437.024 293.493L542.25 354.2L543.75 351.602L438.523 290.894L437.024 293.493Z" fill="black"/>
<path d="M100 25H633V534C633 575.421 599.421 609 558 609H100C58.5787 609 25 575.421 25 534V100C25 58.5787 58.5787 25 100 25Z" stroke="white" stroke-width="50"/>
<path d="M608 0H658V50H608V0Z" fill="#F03639"/>
</g>
<defs>
<clipPath id="clip0_14_81">
<rect width="658" height="634" fill="white"/>
</clipPath>
</defs>
</svg>
